<?xml version="1.0" standalone="no"?>
<!DOCTYPE svg PUBLIC "-//W3C//DTD SVG 1.1//EN" "http://www.w3.org/Graphics/SVG/1.1/DTD/svg11.dtd" >
<svg xmlns="http://www.w3.org/2000/svg">
<metadata></metadata>
<defs>
<font id="genevaregular" horiz-adv-x="1365" >
<font-face units-per-em="2048" ascent="1638" descent="-410" />
<missing-glyph horiz-adv-x="683" />
<glyph horiz-adv-x="0" />
<glyph horiz-adv-x="0" />
<glyph unicode="&#xd;" horiz-adv-x="683" />
<glyph horiz-adv-x="0" />
<glyph unicode="&#x9;" horiz-adv-x="683" />
<glyph horiz-adv-x="0" />
<glyph unicode=" "  horiz-adv-x="683" />
<glyph unicode="&#x09;" horiz-adv-x="683" />
<glyph unicode="&#xa0;" horiz-adv-x="683" />
<glyph unicode="!" horiz-adv-x="621" d="M186 1552h248l-45 -1164h-153zM218 0v186h187v-186h-187z" />
<glyph unicode="&#x22;" horiz-adv-x="1024" d="M186 1614h218l-41 -621h-128zM625 1614h213l-44 -621h-127z" />
<glyph unicode="#" d="M62 411v140h226l112 426h-338v140h379l117 435h144l-115 -435h378l117 435h149l-120 -435h192v-140h-233l-113 -426h346v-140h-381l-112 -411h-148l113 411h-375l-112 -411h-147l109 411h-188zM438 551h376l115 426h-378z" />
<glyph unicode="$" d="M151 386v10h202v-10q0 -90 51.5 -147.5t223.5 -78.5v538l-62 24q-215 87 -288 182.5t-73 229.5q0 106 45.5 193.5t134 144.5t243.5 76v159h155v-159q222 -16 299 -106t77 -191v-10h-201v10q0 55 -44.5 90.5t-130.5 49.5v-547l85 -30q101 -39 183.5 -95.5t114.5 -129 t32 -151.5q0 -98 -46 -193t-131 -159t-238 -86v-155h-155v155q-277 16 -377 131t-100 255zM399 1139q0 -73 40.5 -123.5t149.5 -99.5l39 -15v492q-122 -21 -175.5 -92.5t-53.5 -161.5zM783 165q90 11 132.5 45.5t65.5 88.5t23 112q0 73 -39.5 123t-133.5 90l-48 18v-477z " />
<glyph unicode="%" horiz-adv-x="1854" d="M62 1086q0 214 100.5 340t248.5 126t248.5 -126t100.5 -340t-100.5 -339.5t-248.5 -125.5t-248.5 125.5t-100.5 339.5zM233 1086q0 -141 48.5 -233.5t129.5 -92.5q79 0 129 92.5t50 233.5t-50 233.5t-130 92.5t-128.5 -92.5t-48.5 -233.5zM275 0l1103 1552h177 l-1086 -1552h-194zM1094 465q0 214 100.5 340t248.5 126t248.5 -125.5t100.5 -340.5q0 -214 -100.5 -339.5t-248.5 -125.5t-248.5 125.5t-100.5 339.5zM1264 465q0 -142 49.5 -233.5t129.5 -91.5t129 91.5t49 233.5q0 141 -49 233.5t-129 92.5t-129.5 -92.5t-49.5 -233.5z " />
<glyph unicode="&#x26;" horiz-adv-x="1489" d="M78 428q0 159 104.5 300t268.5 225q-11 18 -16 26q-68 107 -87 150t-28 80.5t-9 71.5q0 79 48 157t130 119t187 41q151 0 238 -79.5t87 -186.5q0 -122 -85.5 -238t-217.5 -192q168 -288 342 -510q51 75 76 165.5t25 264.5v55h186v-24q0 -352 -186 -588q80 -100 248 -265 h-270q-37 37 -74 81l-38 45q-100 -90 -201 -131.5t-223 -41.5q-153 0 -264.5 62.5t-176 174.5t-64.5 238zM272 435q0 -90 43.5 -165t126.5 -118t161 -43q54 0 126 23t183 117q-68 84 -181 247t-200 323q-123 -64 -191 -169t-68 -215zM510 1295q0 -27 8.5 -59.5t21.5 -63 t59 -101.5q6 -9 19 -29q105 59 158.5 137t53.5 136q0 32 -20.5 66.5t-62 53t-80.5 18.5q-78 0 -117.5 -52t-39.5 -106z" />
<glyph unicode="'" horiz-adv-x="621" d="M171 1614h279l-71 -621h-134z" />
<glyph unicode="(" horiz-adv-x="915" d="M178 636q0 180 49 364t160.5 358t240.5 287h155q-174 -184 -250 -332.5t-116.5 -325.5t-40.5 -351t40.5 -351t116.5 -325.5t250 -331.5h-155q-129 112 -240.5 286t-160.5 358t-49 364z" />
<glyph unicode=")" horiz-adv-x="915" d="M132 -372q174 183 250 331.5t116.5 325.5t40.5 351t-40.5 351t-116.5 326t-250 332h155q129 -113 240.5 -287t160.5 -358t49 -364t-49 -364t-160.5 -358t-240.5 -286h-155z" />
<glyph unicode="*" horiz-adv-x="1040" d="M78 1206l40 148l340 -102l-17 346h156l-17 -346l340 102l40 -148l-338 -68l202 -308l-127 -85l-178 316l-178 -316l-127 85l202 308z" />
<glyph unicode="+" d="M124 481v155h481v481h155v-481h481v-155h-481v-481h-155v481h-481z" />
<glyph unicode="," horiz-adv-x="621" d="M178 0v264h264v-164q0 -148 -28.5 -225.5t-86.5 -142.5t-149 -104v120q48 28 73.5 68.5t38.5 84.5t13 99h-125z" />
<glyph unicode="-" horiz-adv-x="776" d="M78 551v155h621v-155h-621z" />
<glyph unicode="." horiz-adv-x="621" d="M178 0v264h264v-264h-264z" />
<glyph unicode="/" horiz-adv-x="1102" d="M47 -47l834 1645h174l-830 -1645h-178z" />
<glyph unicode="0" d="M116 776q0 380 156.5 601t409.5 221q254 0 410.5 -221t156.5 -601t-156.5 -601.5t-410.5 -221.5q-253 0 -409.5 221.5t-156.5 601.5zM310 776q0 -262 88 -464.5t284 -202.5q197 0 285 202.5t88 464.5q0 261 -88 464t-285 203q-196 0 -284 -203t-88 -464z" />
<glyph unicode="1" d="M303 1234v173l314 145h186v-1552h-186v1359z" />
<glyph unicode="2" d="M178 0v161q0 126 78 274.5t262 290.5l105 81q210 162 266.5 242t56.5 167q0 89 -75 158t-216 69q-128 0 -190 -49.5t-62 -111.5v-10h-186v10q0 82 55.5 155t150 117t238.5 44q263 0 375 -111.5t112 -267.5q0 -83 -35 -167t-138.5 -175.5t-168.5 -136.5l-76 -52 q-358 -246 -358 -479v-38h807v-171h-1001z" />
<glyph unicode="3" d="M171 277v10h186v-10q0 -84 78.5 -126t201.5 -42q96 0 169 35.5t111 115.5t38 174q0 145 -114.5 243.5t-350.5 98.5h-94v155h116q136 0 213 43t122 107.5t45 144.5q0 101 -74 159t-196 58q-70 0 -131 -18t-93.5 -61t-32.5 -90v-10h-178v10q0 122 103 223t342 101 q227 0 341 -97t114 -250q0 -84 -33 -156.5t-97.5 -129.5t-185.5 -92q189 -54 283 -160.5t94 -265.5q0 -187 -131.5 -340.5t-398.5 -153.5q-233 0 -340 99.5t-107 224.5z" />
<glyph unicode="4" d="M109 473v155l745 924h186v-924h217v-155h-217v-473h-186v473h-745zM314 628h540v678z" />
<glyph unicode="5" d="M202 262v10h186v-10q0 -67 71 -110.5t192 -43.5q163 0 241 105.5t78 236.5q0 148 -104 248.5t-421 100.5h-142v753h799v-171h-628v-419h47q241 0 373 -59.5t201 -167t69 -260.5q0 -203 -126 -362.5t-384 -159.5q-205 0 -328.5 90.5t-123.5 218.5z" />
<glyph unicode="6" d="M178 766q0 380 155.5 606t446.5 226q198 0 298.5 -87t100.5 -198v-10h-186v10q0 48 -52.5 89t-157.5 41q-123 0 -216 -74t-146.5 -242.5t-53.5 -347.5l1 -55q68 89 134 134t132 66.5t143 21.5q200 0 320.5 -142.5t120.5 -345.5q0 -142 -62.5 -258t-174 -181.5 t-243.5 -65.5q-153 0 -287.5 90.5t-203.5 272.5t-69 450zM418 451q0 -92 42.5 -174.5t116.5 -125t161 -42.5q122 0 204 101.5t82 253.5q0 151 -86.5 239t-210.5 88q-137 0 -223 -100.5t-86 -239.5z" />
<glyph unicode="7" d="M155 1381v171h1047v-171q-23 -34 -26 -38l-143 -192q-135 -182 -277.5 -443t-170 -396t-27.5 -235v-77h-201v67q0 163 46.5 329.5t243 458t332.5 478.5l35 48h-859z" />
<glyph unicode="8" d="M151 423q0 129 74.5 247t226.5 186q-119 59 -179 145t-60 198q0 109 59.5 205t173 145t236.5 49q124 0 237.5 -49.5t173 -145t59.5 -204.5q0 -112 -60 -198t-180 -145q152 -68 227 -186t75 -247q0 -121 -66 -237t-178.5 -174.5t-287.5 -58.5q-174 0 -286.5 58.5 t-178.5 174.5t-66 237zM345 435q0 -84 43.5 -164t124 -121t169.5 -41q90 0 170.5 41t124 121t43.5 164q0 87 -46 170t-125 127t-167 44t-166.5 -44t-124.5 -127t-46 -170zM407 1189q0 -104 77.5 -181t197.5 -77t198 77t78 181q0 114 -83.5 184t-192.5 70q-108 0 -191.5 -70 t-83.5 -184z" />
<glyph unicode="9" d="M147 1093q0 143 62.5 258.5t174 181t243.5 65.5q153 0 287.5 -90.5t203.5 -272t69 -449.5q0 -381 -156 -607t-447 -226q-198 0 -298 87t-100 198v10h186v-10q0 -47 52 -88.5t157 -41.5q124 0 216.5 74t146.5 242.5t54 347.5l-1 55q-68 -89 -134.5 -133.5t-132.5 -66.5 t-142 -22q-201 0 -321 143t-120 345zM341 1088q0 -152 86.5 -240t210.5 -88q136 0 222 101t86 240q0 91 -42 174t-116.5 125.5t-161.5 42.5q-121 0 -203 -101.5t-82 -253.5z" />
<glyph unicode=":" horiz-adv-x="621" d="M178 0v264h264v-264h-264zM178 853v264h264v-264h-264z" />
<glyph unicode=";" horiz-adv-x="621" d="M178 0v264h264v-164q0 -148 -28.5 -225.5t-86.5 -142.5t-149 -104v120q48 28 73.5 68.5t38.5 84.5t13 99h-125zM178 853v264h264v-264h-264z" />
<glyph unicode="&#x3c;" d="M124 555l1117 562v-173l-770 -389l770 -382v-173z" />
<glyph unicode="=" d="M124 310v155h1117v-155h-1117zM124 652v155h1117v-155h-1117z" />
<glyph unicode="&#x3e;" d="M124 0v178l770 389l-770 382v168l1117 -550z" />
<glyph unicode="?" horiz-adv-x="1164" d="M124 1288v10q0 70 53 143.5t150.5 115t211.5 41.5q120 0 224 -46t159.5 -124.5t55.5 -166.5q0 -48 -23 -121t-137 -179l-71 -66q-69 -65 -113.5 -137t-44.5 -226v-136h-186v94q0 163 51.5 266.5t110.5 166.5l78 85q77 84 109 136t32 102q0 85 -76.5 141t-188.5 56 q-94 0 -147.5 -35t-53.5 -110v-10h-194zM403 0v186h186v-186h-186z" />
<glyph unicode="@" horiz-adv-x="1784" d="M124 777q0 226 95 419t271.5 297.5t426.5 104.5q232 0 396 -92.5t255.5 -253.5t91.5 -356q0 -141 -51 -248t-140.5 -168t-194.5 -61q-89 0 -163 46t-90 152q-55 -84 -125.5 -133.5t-141.5 -49.5q-74 0 -141.5 44.5t-101 121t-33.5 166.5q0 117 59 230.5t155.5 163.5 t288.5 50h195v-434q0 -138 38 -185.5t97 -47.5q87 0 154.5 90.5t67.5 245.5q0 176 -80 311t-225.5 209.5t-316.5 74.5q-184 0 -337.5 -84t-233.5 -247t-80 -354q0 -186 76 -361.5t234.5 -262.5t315.5 -87q188 0 375 124v-156q-177 -93 -373 -93q-214 0 -394 104t-275 299.5 t-95 420.5zM648 766q0 -97 38 -136.5t82 -39.5q50 0 106 38.5t147 173.5v284h-63q-84 0 -125 -11.5t-74 -38.5q-59 -47 -85 -115t-26 -155z" />
<glyph unicode="A" horiz-adv-x="1489" d="M31 0l636 1552h204l587 -1552h-218l-161 427h-685l-176 -427h-187zM455 582h564l-272 721z" />
<glyph unicode="B" horiz-adv-x="1303" d="M147 0v1552h412q282 0 378.5 -40.5t145.5 -119.5t49 -175q0 -107 -62 -212.5t-225 -188.5q184 -45 266.5 -151.5t82.5 -240.5q0 -111 -57 -209t-162 -156.5t-363 -58.5h-465zM349 155h285q202 0 276.5 75.5t74.5 178.5q0 83 -48 153t-142.5 114.5t-295.5 44.5h-150v-566z M349 877h194q150 0 224.5 40t119 114.5t44.5 153.5q0 87 -69.5 149t-250.5 62h-262v-519z" />
<glyph unicode="C" horiz-adv-x="1334" d="M93 776q0 409 187 616t486 207q146 0 255 -44.5t172.5 -141t63.5 -185.5v-10h-187v10q0 57 -35.5 109.5t-102 79t-159.5 26.5q-238 0 -354.5 -188t-116.5 -479q0 -294 117 -481t353 -187q162 0 230 67t68 149v10h187v-10q0 -92 -63.5 -187t-172.5 -139.5t-256 -44.5 q-296 0 -484 206t-188 617z" />
<glyph unicode="D" horiz-adv-x="1435" d="M147 0v1552h429q313 0 458 -85t226.5 -259.5t81.5 -425.5q0 -235 -73.5 -407.5t-222.5 -273.5t-442 -101h-457zM349 171h238q213 0 321.5 62.5t166 196t57.5 335.5t-52.5 347.5t-160 214.5t-337.5 69h-233v-1225z" />
<glyph unicode="E" horiz-adv-x="1179" d="M147 0v1552h877v-171h-675v-489h589v-155h-589v-566h729v-171h-931z" />
<glyph unicode="F" horiz-adv-x="1133" d="M147 0v1552h877v-171h-675v-535h589v-156h-589v-690h-202z" />
<glyph unicode="G" horiz-adv-x="1381" d="M93 758q0 307 81.5 477t229.5 266.5t351 96.5q139 0 253 -44t181.5 -133.5t67.5 -177.5v-10h-187v10q0 54 -41.5 100.5t-109 73t-153.5 26.5q-226 0 -345 -177t-119 -488q0 -310 122 -490t344 -180q130 0 302 62v443h-349v155h536v-697q-247 -118 -471 -118 q-233 0 -377 92.5t-230 266.5t-86 446z" />
<glyph unicode="H" horiz-adv-x="1412" d="M147 0v1552h202v-691h713v691h202v-1552h-202v706h-713v-706h-202z" />
<glyph unicode="I" horiz-adv-x="496" d="M147 0v1552h202v-1552h-202z" />
<glyph unicode="J" horiz-adv-x="1008" d="M39 254v10h202v-10q0 -43 23 -77t71.5 -51t107.5 -17q62 0 115.5 28.5t77.5 88t24 261.5v1065h201v-1069q0 -254 -54.5 -347.5t-134.5 -138t-218 -44.5q-227 0 -321 94t-94 207z" />
<glyph unicode="K" horiz-adv-x="1358" d="M147 0v1552h202v-741l648 741h230l-641 -728l740 -824h-253l-724 811v-811h-202z" />
<glyph unicode="L" horiz-adv-x="1195" d="M147 0v1552h202v-1381h814v-171h-1016z" />
<glyph unicode="M" horiz-adv-x="1614" d="M147 0v1552h198l482 -1109l443 1109h196v-1552h-179v925l5 277h-5l-100 -278l-275 -691h-203l-299 694l-92 252h-5l5 -252v-927h-171z" />
<glyph unicode="N" horiz-adv-x="1451" d="M147 0v1552h200l709 -1103l65 -123l-4 122v1104h186v-1552h-198l-711 1108l-65 125l4 -125v-1108h-186z" />
<glyph unicode="O" horiz-adv-x="1505" d="M93 776q0 395 184 608.5t475 213.5t475.5 -213.5t184.5 -608.5t-184.5 -609t-475.5 -214t-475 214t-184 609zM302 776q0 -302 119.5 -484.5t330.5 -182.5q212 0 331 182.5t119 484.5q0 301 -119 484t-331 183q-211 0 -330.5 -183t-119.5 -484z" />
<glyph unicode="P" horiz-adv-x="1195" d="M147 0v1552h432q247 0 348.5 -50.5t153 -148t51.5 -226.5q0 -218 -148.5 -366t-442.5 -148h-192v-613h-202zM349 768h136q268 0 353 103t85 247q0 125 -68.5 201.5t-271.5 76.5h-234v-628z" />
<glyph unicode="Q" horiz-adv-x="1505" d="M93 775q0 396 184 609.5t476 213.5q291 0 475 -213.5t184 -607.5q0 -198 -43.5 -348.5t-144 -268t-278.5 -179.5q101 -88 215.5 -132.5t242.5 -44.5q100 0 194 34v-178q-95 -32 -199 -32q-148 0 -291 57t-355 263q-253 22 -382 122.5t-203.5 272t-74.5 432.5zM302 776 q0 -302 119.5 -484.5t331.5 -182.5q211 0 330 182.5t119 484.5q0 301 -119 484t-330 183q-212 0 -331.5 -183t-119.5 -484z" />
<glyph unicode="R" horiz-adv-x="1241" d="M147 0v1552h480q177 0 266 -51t141 -147.5t52 -209.5q0 -91 -35 -174.5t-98.5 -151t-196.5 -120.5q50 -28 75 -53t61 -81t63 -105l247 -459h-231l-215 408q-78 148 -203 259h-204v-667h-202zM349 822h197q125 0 189.5 38.5t102.5 112t38 157.5q0 73 -30 130.5t-88 96.5 t-197 39h-212v-574z" />
<glyph unicode="S" horiz-adv-x="1241" d="M109 339v10h202v-10q0 -129 91 -179.5t242 -50.5q132 0 221.5 77t89.5 203q0 102 -77 166.5t-234 128.5l-81 33q-165 68 -246.5 134.5t-121.5 147.5t-40 181q0 176 124.5 297t389.5 121q243 0 342 -90t99 -210v-10h-202v10q0 38 -30.5 75t-91.5 53.5t-134 16.5 q-149 0 -220.5 -74.5t-71.5 -169.5q0 -64 34 -120.5t93.5 -93.5t200.5 -99l95 -41q228 -99 304.5 -208t76.5 -235q0 -117 -62 -226.5t-172 -166t-293 -56.5q-174 0 -290.5 41.5t-177 136.5t-60.5 208z" />
<glyph unicode="T" horiz-adv-x="1311" d="M31 1396v156h1249v-156h-520v-1396h-201v1396h-528z" />
<glyph unicode="U" d="M124 527v1025h202v-998q0 -218 42.5 -292.5t132.5 -113.5t201 -39q107 0 189.5 39t123 123.5t40.5 353.5v927h186v-979q0 -272 -62.5 -382t-180.5 -174t-297 -64q-166 0 -304 51t-205.5 158.5t-67.5 364.5z" />
<glyph unicode="V" horiz-adv-x="1489" d="M31 1552h220l492 -1301l527 1301h188l-633 -1552h-203z" />
<glyph unicode="W" horiz-adv-x="1939" d="M78 1552h193l247 -1093l34 -187h9l34 187l284 1093h200l277 -1096l32 -184h9l33 184l255 1096h177l-361 -1552h-205l-287 1113l-37 190h-10l-35 -190l-292 -1113h-205z" />
<glyph unicode="X" horiz-adv-x="1249" d="M31 0l497 788l-458 764h221l351 -586l373 586h201l-476 -748l478 -804h-217l-374 625l-392 -625h-204z" />
<glyph unicode="Y" horiz-adv-x="1249" d="M23 1552h235l388 -627l383 627h196l-498 -821v-731h-201v731z" />
<glyph unicode="Z" horiz-adv-x="1179" d="M78 0v186l771 1195h-717v171h939v-171l-767 -1195h782v-186h-1008z" />
<glyph unicode="[" horiz-adv-x="915" d="M233 -372v2017h504v-156h-333v-1706h333v-155h-504z" />
<glyph unicode="\" horiz-adv-x="1102" d="M47 1598h178l830 -1645h-174z" />
<glyph unicode="]" horiz-adv-x="915" d="M178 -217h334v1706h-334v156h504v-2017h-504v155z" />
<glyph unicode="^" d="M124 434l559 1118l558 -1118h-171l-387 776l-388 -776h-171z" />
<glyph unicode="_" d="M62 0h1241v-155h-1241v155z" />
<glyph unicode="`" horiz-adv-x="1210" d="M310 1614h216l296 -326h-170z" />
<glyph unicode="a" horiz-adv-x="1133" d="M109 275q0 162 134.5 250t463.5 152l100 19v126q0 103 -69 144.5t-166 41.5q-116 0 -181 -51t-65 -119v-16h-202v15q0 74 62.5 153t166 119t226.5 40q122 0 222 -38t146 -102.5t46 -242.5v-434q0 -71 4 -149q3 -79 35 -183h-196q-29 90 -29 155q-122 -121 -208.5 -153.5 t-165.5 -32.5q-133 0 -228.5 81.5t-95.5 224.5zM310 271q0 -44 23.5 -82t69.5 -59t91 -21q78 0 153.5 45.5t117.5 121.5t42 177v111l-56 -14q-283 -69 -362 -131t-79 -148z" />
<glyph unicode="b" horiz-adv-x="1249" d="M132 0q5 55 9 134q3 79 5 129t2 67v1284h186v-691q61 95 114.5 138t117 65t133.5 22q127 0 233 -69.5t165 -207.5t59 -310q0 -255 -123 -423.5t-343 -168.5q-72 0 -135 20.5t-112.5 61t-108.5 144.5l-6 -81q-4 -67 -10 -114h-186zM334 558q0 -190 82 -312t230 -122 q136 0 226 108t90 323q0 251 -92 348.5t-219 97.5q-89 0 -165.5 -53.5t-114 -159t-37.5 -230.5z" />
<glyph unicode="c" horiz-adv-x="1117" d="M93 559q0 276 133.5 432.5t380.5 156.5q129 0 220.5 -40.5t148 -111t56.5 -156.5v-10h-187v10v6q0 57 -53 101q-57 46 -175 46q-140 0 -235 -103t-95 -331q0 -229 95 -332t235 -103q118 0 173 46t55 107v10h187v-10q0 -75 -56.5 -151t-148 -116.5t-220.5 -40.5 q-247 0 -380.5 156.5t-133.5 433.5z" />
<glyph unicode="d" horiz-adv-x="1233" d="M93 556q0 255 123 423.5t343 168.5q72 0 135 -20.5t112.5 -61t108.5 -144.5v692h186v-1614h-186v194q-57 -108 -111 -150t-121.5 -58.5t-133.5 -16.5q-126 0 -232 69.5t-165 207.5t-59 310zM287 562q0 -251 87 -348.5t224 -97.5q89 0 165.5 54t114 159t37.5 230 q0 190 -82 312t-230 122q-136 0 -226 -108t-90 -323z" />
<glyph unicode="e" horiz-adv-x="1179" d="M93 551q0 258 146.5 427.5t377.5 169.5q127 0 230 -55t163 -171.5t60 -324.5v-62h-793q0 -179 96.5 -295t267.5 -116q123 0 179.5 47.5t56.5 105.5v10h186v-10q0 -74 -59 -151t-156 -117t-223 -40q-255 0 -393.5 165t-138.5 417zM289 675h603v22q0 78 -37.5 151.5 t-103.5 109t-154 35.5q-104 0 -192 -83.5t-116 -234.5z" />
<glyph unicode="f" horiz-adv-x="799" d="M85 962v155h163v52q0 243 102.5 344t267.5 101q62 0 157 -14v-152q-78 10 -125 10q-90 0 -153 -44t-63 -210v-87h326v-155h-326v-962h-186v962h-163z" />
<glyph unicode="g" horiz-adv-x="1249" d="M93 568q0 168 58 306t163 206t246 68q105 0 188 -41.5t167 -168.5v179h186v-913q0 -344 -72 -454t-182.5 -163t-259.5 -53q-138 0 -247.5 41t-166.5 112.5t-57 148.5v17h186v-16q0 -74 80 -118.5t203 -44.5q100 0 171.5 34.5t115 112t43.5 281.5v134q-57 -118 -148 -177 t-216 -59q-199 0 -328.5 156.5t-129.5 411.5zM287 566q0 -128 36 -224t112.5 -145.5t163.5 -49.5q141 0 228.5 124.5t87.5 320.5q0 179 -92 290t-220 111q-136 0 -226 -112t-90 -315z" />
<glyph unicode="h" horiz-adv-x="1195" d="M147 0v1614h186v-690q59 91 114.5 135t116 66.5t134.5 22.5q105 0 188.5 -43t129.5 -126.5t46 -267.5v-711h-186v631q0 150 -20 212.5t-76 98t-128 35.5q-82 0 -156 -48t-118.5 -134t-44.5 -246v-549h-186z" />
<glyph unicode="i" horiz-adv-x="481" d="M147 0v1117h186v-1117h-186zM147 1365v187h186v-187h-186z" />
<glyph unicode="j" horiz-adv-x="566" d="M-116 -269l40 -4q55 -6 88 -6q94 0 153.5 47.5t59.5 231.5v1117h187v-1117q0 -169 -40.5 -252t-130.5 -132.5t-195 -49.5q-75 0 -162 17v148zM225 1373v179h187v-179h-187z" />
<glyph unicode="k" horiz-adv-x="1102" d="M147 0v1614h194v-1029l496 532h215l-484 -519l502 -598h-233l-496 585v-585h-194z" />
<glyph unicode="l" horiz-adv-x="481" d="M147 0v1614h186v-1614h-186z" />
<glyph unicode="m" horiz-adv-x="1831" d="M147 0v1117h186v-202q57 101 108.5 145t112.5 66t130 22t132 -21.5t109 -64.5t91 -147q57 97 112.5 142.5t114 68t124.5 22.5q95 0 172 -44.5t118.5 -126.5t41.5 -279v-698h-187v621q0 197 -23.5 249t-65 79.5t-100.5 27.5q-83 0 -153 -51.5t-112 -138.5t-42 -244v-543 h-186v621q0 197 -21.5 249t-68.5 80t-101 28q-76 0 -149.5 -53.5t-115 -142t-41.5 -239.5v-543h-186z" />
<glyph unicode="n" horiz-adv-x="1195" d="M147 0v1117h186v-193q59 91 114.5 135t116 66.5t134.5 22.5q105 0 188.5 -43t129.5 -126.5t46 -267.5v-711h-186v631q0 150 -20 212.5t-78 98t-126 35.5q-82 0 -156 -48t-118.5 -134t-44.5 -246v-549h-186z" />
<glyph unicode="o" horiz-adv-x="1241" d="M93 559q0 292 154.5 440.5t373.5 148.5q218 0 372.5 -148.5t154.5 -440.5q0 -293 -154.5 -441.5t-372.5 -148.5q-219 0 -373.5 148.5t-154.5 441.5zM287 559q0 -196 91.5 -315.5t242.5 -119.5q150 0 241.5 119.5t91.5 315.5q0 195 -91.5 314.5t-241.5 119.5 q-151 0 -242.5 -119.5t-91.5 -314.5z" />
<glyph unicode="p" horiz-adv-x="1233" d="M132 -434v1551h186v-194q58 99 110.5 140t118.5 63t136 22q128 0 234 -69.5t164.5 -207.5t58.5 -310q0 -255 -122.5 -423.5t-343.5 -168.5q-71 0 -134.5 20.5t-112.5 61t-109 144.5v-629h-186zM318 558q0 -190 82 -312t231 -122q136 0 226 108t90 323q0 251 -95 348.5 t-217 97.5q-88 0 -164.5 -53.5t-114.5 -159t-38 -230.5z" />
<glyph unicode="q" horiz-adv-x="1233" d="M93 556q0 255 123 423.5t343 168.5q72 0 135 -20.5t112.5 -61t108.5 -144.5v195h186v-1551h-186v628q-58 -99 -110 -140t-118.5 -63t-136.5 -22q-127 0 -233 69.5t-165 207.5t-59 310zM287 562q0 -251 95 -348.5t216 -97.5q89 0 165.5 54t114 159t37.5 230q0 190 -82 312 t-230 122q-136 0 -226 -108t-90 -323z" />
<glyph unicode="r" horiz-adv-x="791" d="M147 0v1117h186v-197q46 85 100.5 132t116 71.5t125.5 24.5q58 0 100 -17v-193q-66 32 -140 32q-105 0 -203.5 -92t-98.5 -326v-552h-186z" />
<glyph unicode="s" horiz-adv-x="1043" d="M78 291v4h186v-4q0 -72 55 -119.5t186 -47.5q115 0 186.5 56t71.5 132q0 103 -140 146l-95 29l-63 20l-129 40q-221 81 -221 269q0 132 107 232t318 100q208 0 296 -85.5t88 -189.5v-4h-187v4q0 56 -56.5 88t-150.5 32q-112 0 -171.5 -46.5t-59.5 -114.5 q0 -52 38.5 -84.5t129.5 -58.5l90 -25l65 -19q136 -39 169.5 -55t67.5 -41q47 -36 69.5 -87t22.5 -119q0 -158 -113.5 -266t-331.5 -108q-138 0 -229 41t-145 113.5t-54 167.5z" />
<glyph unicode="t" horiz-adv-x="908" d="M70 962v155h194v264h186v-264h326v-155h-326v-521q0 -148 23 -205.5t72.5 -84.5t118.5 -27q55 0 166 34v-156q-136 -33 -208 -33q-104 0 -187.5 42t-127 122t-43.5 255v574h-194z" />
<glyph unicode="u" horiz-adv-x="1195" d="M132 409v708h186v-630q0 -245 65 -296t161 -51q83 0 156.5 48.5t117 136t43.5 243.5v549h186v-1117h-186v195q-58 -90 -114 -135t-115 -68t-129 -23q-155 0 -263 87.5t-108 352.5z" />
<glyph unicode="v" horiz-adv-x="1156" d="M23 1117h200l358 -876l366 876h185l-468 -1117h-186z" />
<glyph unicode="w" horiz-adv-x="1598" d="M31 1117h195l197 -695l26 -166h21l29 166l199 695h187l222 -693l38 -168h20l29 168l197 693h176l-319 -1117h-188l-230 730l-31 162h-16l-33 -162l-211 -730h-189z" />
<glyph unicode="x" horiz-adv-x="1086" d="M54 0l388 565l-365 552h214l260 -393l269 393h192l-365 -533l384 -584h-215l-279 424l-289 -424h-194z" />
<glyph unicode="y" horiz-adv-x="1171" d="M31 1117h206l374 -830l350 830h187l-471 -1118q-95 -226 -159 -299.5t-135.5 -103.5t-190.5 -30h-140v155h105q77 0 135 20.5t96.5 65.5t103.5 198l19 43z" />
<glyph unicode="z" horiz-adv-x="1133" d="M116 0v155l663 807h-647v155h868v-155l-651 -807h675v-155h-908z" />
<glyph unicode="{" horiz-adv-x="923" d="M209 559v155h53q97 0 130.5 51t33.5 119q0 81 -22 172l-24 103q-24 101 -24 191q0 133 94 214t225 81h15v-156h-19q-55 0 -99.5 -44t-44.5 -131q0 -29 5 -50l11 -49l22 -120q24 -135 24 -182q0 -79 -48.5 -158.5t-160.5 -118.5q112 -39 160.5 -118.5t48.5 -158.5 q0 -46 -24 -182l-22 -120l-11 -48q-5 -25 -5 -51q0 -86 44 -130.5t100 -44.5h19v-155h-15q-131 0 -225 80.5t-94 214.5q0 90 24 190l24 103q22 92 22 173q0 67 -33.5 118.5t-130.5 51.5h-53z" />
<glyph unicode="|" horiz-adv-x="504" d="M171 -47v1645h163v-1645h-163z" />
<glyph unicode="}" horiz-adv-x="923" d="M233 -217h19q55 0 99.5 44t44.5 132q0 28 -5 50l-11 48l-22 120q-24 136 -24 182q0 79 48.5 158.5t160.5 118.5q-112 39 -160.5 118.5t-48.5 159.5q0 46 24 181l22 120l11 49q5 24 5 51q0 85 -44 129.5t-100 44.5h-19v156h15q131 0 225 -81t94 -215q0 -89 -24 -190 l-25 -103q-21 -91 -21 -172q0 -68 33.5 -119t130.5 -51h53v-155h-53q-97 0 -130.5 -51.5t-33.5 -119.5q0 -80 21 -172l25 -103q24 -100 24 -190q0 -133 -94 -214t-225 -81h-15v155z" />
<glyph unicode="~" d="M124 403v18q0 131 77.5 227.5t208.5 96.5q33 0 64.5 -6.5t71.5 -22t120 -60.5l121 -67q111 -61 181 -61q74 0 109.5 53.5t35.5 116.5v16h128v-16q0 -167 -94.5 -246.5t-200.5 -79.5q-99 0 -262 93l-102 59q-116 66 -187 66q-40 0 -74.5 -21t-55.5 -67t-21 -81v-18h-120z " />
<glyph unicode="&#xa0;" />
<glyph unicode="&#xa1;" horiz-adv-x="621" d="M186 -434l46 1163h152l50 -1163h-248zM216 931v186h186v-186h-186z" />
<glyph unicode="&#xa2;" d="M190 775q0 149 44 270.5t136.5 208t246.5 110.5v188h155v-188q140 -20 208.5 -62t108.5 -108t40 -129v-10h-187v10q0 109 -170 142v-866q94 19 132 66t38 87v10h187v-10q0 -87 -82.5 -182t-274.5 -123v-189h-155v189q-165 31 -248 105.5t-131 198.5t-48 282zM384 774 q0 -113 24.5 -194.5t72 -139t136.5 -89.5v853q-92 -31 -137 -87t-70.5 -142t-25.5 -201z" />
<glyph unicode="&#xa3;" d="M163 0v171q136 67 184.5 172t80.5 275l29 150h-209v155h241l47 239q34 175 83 258t126.5 130.5t183.5 47.5q45 0 91 -8t128 -51v-159q-114 47 -197 47q-68 0 -111 -29t-68.5 -93t-56.5 -213l-35 -169h329v-155h-360l-27 -134q-19 -94 -50.5 -191t-65.5 -151t-111 -121 h753v-171h-985z" />
<glyph unicode="&#xa4;" d="M85 280l185 184q-69 110 -84 173t-15 130q0 68 15 131t84 173l-185 185l110 110l185 -186q107 67 169.5 83.5t133.5 16.5t133.5 -16.5t169.5 -83.5l185 186l110 -110l-185 -185q69 -110 84 -173t15 -131q0 -67 -15 -130t-84 -173l185 -184l-110 -110l-185 185 q-110 -69 -172.5 -84t-130.5 -15t-130.5 15t-172.5 84l-185 -185zM326 767q0 -146 104.5 -251t252.5 -105t252.5 105t104.5 251q0 96 -47.5 179t-132 131t-177.5 48t-177.5 -48t-132 -131t-47.5 -179z" />
<glyph unicode="&#xa5;" d="M74 1552h209l428 -673l401 673h180l-490 -823h368v-147h-380v-186h380v-140h-380v-256h-186v256h-388v140h388v186h-388v147h375z" />
<glyph unicode="&#xa6;" horiz-adv-x="504" d="M171 -47v730h163v-730h-163zM171 869v729h163v-729h-163z" />
<glyph unicode="&#xa7;" d="M136 13v10h202v-10q0 -75 37 -126.5t120.5 -77.5t181.5 -26q159 0 234.5 66.5t75.5 143.5q0 35 -15 65t-46 55q-62 49 -253 141l-215 104q-156 75 -208 154.5t-52 161.5q0 75 44.5 152.5t109.5 123.5q-77 59 -115.5 128.5t-38.5 149.5q0 162 134.5 266t376.5 104 q236 0 335.5 -89t99.5 -211v-10h-201v10q0 74 -74.5 109.5t-188.5 35.5q-126 0 -207 -50t-81 -139q0 -71 59.5 -126.5t193.5 -118.5l185 -86q191 -89 268.5 -169t77.5 -193q0 -149 -168 -281q110 -77 139 -139t29 -135q0 -107 -56 -189.5t-160.5 -135.5t-282.5 -53 q-328 0 -434.5 121t-106.5 264zM392 702q0 -56 33.5 -97.5t174.5 -109.5l290 -140q92 74 92 158q0 61 -43 114.5t-194 126.5l-264 126q-65 -56 -77 -99t-12 -79z" />
<glyph unicode="&#xa8;" horiz-adv-x="1210" d="M295 1288v186h186v-186h-186zM729 1288v186h187v-186h-187z" />
<glyph unicode="&#xa9;" horiz-adv-x="1800" d="M78 775q0 220 109.5 412t302.5 301.5t410 109.5q218 0 410.5 -109.5t302.5 -301.5t110 -412q0 -224 -114 -417t-303.5 -299t-405.5 -106t-405 106t-303 299t-114 417zM202 775q0 -191 96.5 -354.5t257 -253t344.5 -89.5t344.5 89.5t257.5 253.5q96 161 96 350v4 q0 187 -93 350t-256.5 256t-348.5 93t-348.5 -93t-256.5 -256t-93 -350zM458 786q0 204 119 360.5t364 156.5q154 0 291 -49v-139q-136 64 -265 64q-146 0 -242 -95t-96 -302q0 -203 97 -302.5t254 -99.5q112 0 252 58v-138q-115 -52 -280 -52q-152 0 -260.5 63.5t-171 194 t-62.5 280.5z" />
<glyph unicode="&#xaa;" horiz-adv-x="683" d="M62 1075q0 97 80 151.5t285 93.5l54 10v68q0 51 -33.5 76.5t-100.5 25.5q-65 0 -102 -27.5t-37 -72.5v-10h-137v10q0 53 38.5 99.5t102.5 73t140 26.5t138 -24t90 -64t28 -146v-256q0 -121 28 -204h-136q-16 50 -18 82q-52 -50 -106.5 -75t-111.5 -25q-83 0 -142.5 50.5 t-59.5 137.5zM198 1073q0 -45 34.5 -66.5t68.5 -21.5q53 0 116.5 46t63.5 149v56l-24 -6q-162 -39 -210.5 -74.5t-48.5 -82.5z" />
<glyph unicode="&#xab;" horiz-adv-x="1094" d="M85 481v155l335 357h161l-305 -438l305 -431h-170zM519 481v155l335 357h162l-306 -438l306 -431h-170z" />
<glyph unicode="&#xac;" d="M124 481v155h1117v-481h-155v326h-962z" />
<glyph unicode="&#xad;" horiz-adv-x="776" d="M78 551v155h621v-155h-621z" />
<glyph unicode="&#xae;" horiz-adv-x="1800" d="M78 775q0 220 109.5 412t302.5 301.5t410 109.5q218 0 410.5 -109.5t302.5 -301.5t110 -412q0 -224 -114 -417t-303.5 -299t-405.5 -106t-405 106t-303 299t-114 417zM202 775q0 -191 96.5 -354.5t257 -253t344.5 -89.5t344.5 89.5t257.5 253.5q96 161 96 350v4 q0 187 -93 350t-256.5 256t-348.5 93t-348.5 -93t-256.5 -256t-93 -350zM585 264v1016h323q118 0 178.5 -34.5t95.5 -98.5t35 -139q0 -87 -49 -166t-150 -122q53 -33 113 -144l168 -312h-182l-139 265l-33 63q-56 99 -81 99h-119v-427h-160zM745 813h111q110 0 153 58 t43 128q0 43 -17.5 77.5t-51 57.5t-117.5 23h-121v-344z" />
<glyph unicode="&#xaf;" horiz-adv-x="1210" d="M326 1288v124h559v-124h-559z" />
<glyph unicode="&#xb0;" horiz-adv-x="698" d="M78 1326q0 113 80.5 192.5t191.5 79.5t191 -79.5t80 -192.5q0 -110 -79 -190.5t-192 -80.5q-114 0 -193 80.5t-79 190.5zM171 1326q0 -70 51.5 -124t127.5 -54q75 0 126.5 54t51.5 124q0 73 -52.5 126t-125.5 53q-74 0 -126.5 -53t-52.5 -126z" />
<glyph unicode="&#xb1;" d="M124 0v155h1117v-155h-1117zM124 791v155h481v481h155v-481h481v-155h-481v-481h-155v481h-481z" />
<glyph unicode="&#xb2;" horiz-adv-x="822" d="M85 644v116q0 65 48.5 158.5t158.5 174.5l63 47l59 45q93 71 111 106t18 69q0 46 -42 80t-119 34q-66 0 -100 -22t-34 -47v-24h-140v25q0 64 70 128t211 64q167 0 238 -70t71 -164q0 -50 -22.5 -101t-85 -104t-107.5 -83l-46 -30q-207 -137 -207 -264v-6h483v-132h-628z " />
<glyph unicode="&#xb3;" horiz-adv-x="822" d="M113 815v23h132v-23q0 -22 28 -46t116 -24q105 0 143.5 55t38.5 117q0 70 -63 123.5t-202 53.5h-61v124h72q78 0 120.5 22.5t68.5 56.5t27 70q0 40 -32 73.5t-112 33.5q-75 0 -109.5 -26t-34.5 -52v-23h-124v23q0 51 39.5 99.5t105.5 75.5t143 27q115 0 193 -55.5 t78 -154.5q0 -56 -25 -108.5t-129 -111.5q127 -59 160 -119t33 -131q0 -115 -85 -206.5t-255 -91.5q-118 0 -192 55t-74 140z" />
<glyph unicode="&#xb4;" horiz-adv-x="1210" d="M310 1288l296 326h216l-342 -326h-170z" />
<glyph unicode="&#xb5;" horiz-adv-x="1210" d="M-51 -372l298 1489h186l-127 -635q-23 -114 -23 -171q0 -90 51 -130.5t124 -40.5q90 0 171.5 47t143.5 135t94 248l109 547h186l-223 -1117h-186l38 191q-114 -124 -208 -173t-183 -49q-112 0 -183 68l-82 -409h-186z" />
<glyph unicode="&#xb6;" d="M101 1104q0 117 64 228t185.5 165.5t361.5 54.5h607v-156h-163v-1768h-155v1768h-217v-1768h-155v1047q-233 0 -380.5 126t-147.5 303z" />
<glyph unicode="&#xb8;" horiz-adv-x="1210" d="M434 -318q58 -31 119 -31q35 0 63 21t28 44q0 68 -186 87l109 197h108l-73 -131q107 -21 140 -65.5t33 -92.5q0 -55 -44 -100.5t-138 -45.5q-83 0 -159 28v89z" />
<glyph unicode="&#xb9;" horiz-adv-x="822" d="M167 1352v133l193 90h140v-931h-140v781z" />
<glyph unicode="&#xba;" horiz-adv-x="760" d="M56 1242q0 178 96 267t228 89t228.5 -89t96.5 -267t-96.5 -266.5t-228.5 -88.5q-131 0 -227.5 88.5t-96.5 266.5zM188 1242q0 -111 52.5 -179.5t139.5 -68.5t140 68.5t53 179.5q0 112 -52.5 180.5t-140.5 68.5q-87 0 -139.5 -68.5t-52.5 -180.5z" />
<glyph unicode="&#xbb;" horiz-adv-x="1094" d="M78 124l306 438l-306 431h170l326 -357v-155l-334 -357h-162zM512 124l306 438l-306 431h171l326 -357v-155l-335 -357h-162z" />
<glyph unicode="&#xbc;" horiz-adv-x="1854" d="M120 1321v133l193 90h140v-931h-140v781zM178 -78l1182 1645h176l-1159 -1645h-199zM1012 240v114l458 546h132v-535h132v-125h-132v-271h-140v271h-450zM1185 365h277v333z" />
<glyph unicode="&#xbd;" horiz-adv-x="1854" d="M89 1352v133l193 90h140v-931h-140v781zM147 -47l1182 1645h176l-1159 -1645h-199zM1136 0v116q0 65 48.5 158.5t158.5 174.5l64 47l59 45q92 71 110 106t18 69q0 46 -42 80t-118 34q-67 0 -101 -21.5t-34 -47.5v-24h-139v25q0 64 69.5 128t210.5 64q167 0 238 -70 t71 -163q0 -51 -22 -102t-85 -104t-108 -83l-46 -30q-207 -137 -207 -264v-6h484v-132h-629z" />
<glyph unicode="&#xbe;" horiz-adv-x="1854" d="M74 815v23h132v-23q0 -22 28 -46t116 -24q104 0 143 55t39 117q0 70 -63.5 123.5t-202.5 53.5h-60v124h72q78 0 120.5 22.5t68.5 56.5t26 70q0 40 -32 73.5t-111 33.5q-75 0 -109.5 -26t-34.5 -52v-23h-124v23q0 51 39.5 99t104.5 75.5t143 27.5q116 0 193.5 -55.5 t77.5 -154.5q0 -56 -24.5 -108.5t-129.5 -111.5q127 -59 160 -119t33 -131q0 -115 -84.5 -206.5t-254.5 -91.5q-118 0 -192 55t-74 140zM226 -78l1181 1645h176l-1159 -1645h-198zM1059 240v114l458 546h132v-535h132v-125h-132v-271h-140v271h-450zM1232 365h277v333z" />
<glyph unicode="&#xbf;" horiz-adv-x="1164" d="M186 -144q0 48 23 121t137 180l71 65q69 65 113.5 137t44.5 227v135h186v-94q0 -163 -51.5 -266.5t-109.5 -166.5l-79 -85q-77 -84 -109 -136t-32 -102q0 -85 76.5 -141t188.5 -56q94 0 147.5 35t53.5 110v10h194v-10q0 -70 -53 -143.5t-150 -115t-212 -41.5 q-120 0 -224 46t-159.5 125t-55.5 166zM575 931v186h186v-186h-186z" />
<glyph unicode="&#xc0;" horiz-adv-x="1489" d="M31 0l636 1552h204l587 -1552h-218l-161 427h-685l-176 -427h-187zM426 1924h326l310 -202h-240zM455 582h564l-272 721z" />
<glyph unicode="&#xc1;" horiz-adv-x="1489" d="M31 0l636 1552h204l587 -1552h-218l-161 427h-685l-176 -427h-187zM455 582h564l-272 721zM488 1722l311 202h326l-396 -202h-241z" />
<glyph unicode="&#xc2;" horiz-adv-x="1489" d="M31 0l636 1552h204l587 -1552h-218l-161 427h-685l-176 -427h-187zM390 1722l294 202h124l295 -202h-217l-140 62l-139 -62h-217zM455 582h564l-272 721z" />
<glyph unicode="&#xc3;" horiz-adv-x="1489" d="M31 0l636 1552h204l587 -1552h-218l-161 427h-685l-176 -427h-187zM378 1722q9 68 44.5 115t74.5 67t90 20q62 0 128 -22l99 -33q61 -21 89 -21q30 0 50 13.5t36 62.5h123q-20 -108 -83.5 -155t-133.5 -47q-43 0 -133 34l-67 25l-25 9q-50 18 -80 18q-19 0 -49.5 -14.5 t-39.5 -71.5h-123zM455 582h564l-272 721z" />
<glyph unicode="&#xc4;" horiz-adv-x="1489" d="M31 0l636 1552h204l587 -1552h-218l-161 427h-685l-176 -427h-187zM455 582h564l-272 721zM459 1722v186h186v-186h-186zM893 1722v186h187v-186h-187z" />
<glyph unicode="&#xc5;" horiz-adv-x="1489" d="M31 0l636 1552q-42 30 -63.5 68.5t-21.5 86.5q0 75 54 130.5t132 55.5q76 0 131 -55t55 -131q0 -46 -20.5 -85t-62.5 -70l587 -1552h-218l-161 427h-685l-176 -427h-187zM455 582h564l-272 721zM675 1707q0 -38 27 -65.5t66 -27.5q38 0 65.5 27.5t27.5 65.5t-27.5 65.5 t-65.5 27.5q-39 0 -66 -28t-27 -65z" />
<glyph unicode="&#xc6;" horiz-adv-x="2032" d="M0 0l1001 1552h876v-171h-675v-489h590v-155h-590v-566h730v-171h-931v427h-516l-280 -427h-205zM584 582h417v645z" />
<glyph unicode="&#xc7;" horiz-adv-x="1334" d="M78 748q0 307 80 479.5t231 272t362 99.5q146 0 255 -44.5t172.5 -140t63.5 -186.5v-10h-187v10q0 59 -35.5 110.5t-102 78t-159.5 26.5q-238 0 -354.5 -188t-116.5 -479q0 -294 117 -481t353 -187q162 0 230 67t68 149v10h187v-10q0 -82 -55 -172.5t-150 -139 t-276 -58.5l-45 -85q107 -21 140 -65.5t33 -92.5q0 -55 -44 -100.5t-138 -45.5q-83 0 -159 28v89q58 -31 118 -31q36 0 63.5 21t27.5 44q0 68 -185 87l83 151q-192 22 -324.5 133.5t-192.5 261t-60 399.5z" />
<glyph unicode="&#xc8;" horiz-adv-x="1179" d="M147 0v1552h877v-171h-675v-489h589v-155h-589v-566h729v-171h-931zM295 1924h326l310 -202h-240z" />
<glyph unicode="&#xc9;" horiz-adv-x="1179" d="M147 0v1552h877v-171h-675v-489h589v-155h-589v-566h729v-171h-931zM293 1722l311 202h326l-396 -202h-241z" />
<glyph unicode="&#xca;" horiz-adv-x="1179" d="M147 0v1552h877v-171h-675v-489h589v-155h-589v-566h729v-171h-931zM257 1722l294 202h124l295 -202h-217l-140 62l-139 -62h-217z" />
<glyph unicode="&#xcb;" horiz-adv-x="1179" d="M147 0v1552h877v-171h-675v-489h589v-155h-589v-566h729v-171h-931zM303 1722v186h186v-186h-186zM737 1722v186h187v-186h-187z" />
<glyph unicode="&#xcc;" horiz-adv-x="497" d="M-70 1924h326l310 -202h-240zM147 0v1552h202v-1552h-202z" />
<glyph unicode="&#xcd;" horiz-adv-x="495" d="M-71 1722l311 202h326l-396 -202h-241zM147 0v1552h202v-1552h-202z" />
<glyph unicode="&#xce;" horiz-adv-x="495" d="M-110 1722l294 202h124l295 -202h-217l-140 62l-139 -62h-217zM147 0v1552h202v-1552h-202z" />
<glyph unicode="&#xcf;" horiz-adv-x="497" d="M-62 1722v186h186v-186h-186zM147 0v1552h202v-1552h-202zM372 1722v186h187v-186h-187z" />
<glyph unicode="&#xd0;" horiz-adv-x="1435" d="M-39 714v155h186v683h429q314 0 459 -85t226 -259.5t81 -425.5q0 -235 -73.5 -407.5t-222 -273.5t-442.5 -101h-457v714h-186zM349 171h238q213 0 321.5 62.5t166 196t57.5 335.5t-52.5 347.5t-160 214.5t-336.5 69h-234v-527h279v-155h-279v-543z" />
<glyph unicode="&#xd1;" horiz-adv-x="1451" d="M147 0v1552h200l709 -1103l65 -123l-4 122v1104h186v-1552h-198l-711 1108l-65 125l4 -125v-1108h-186zM357 1722q9 68 44.5 115t74.5 67t90 20q62 0 128 -22l99 -33q61 -21 89 -21q30 0 50 13.5t36 62.5h123q-20 -108 -83.5 -155t-133.5 -47q-43 0 -133 34l-67 25l-25 9 q-50 18 -80 18q-19 0 -49.5 -14.5t-39.5 -71.5h-123z" />
<glyph unicode="&#xd2;" horiz-adv-x="1505" d="M93 776q0 395 184 608.5t475 213.5t475.5 -213.5t184.5 -608.5t-184.5 -609t-475.5 -214t-475 214t-184 609zM302 776q0 -302 119.5 -484.5t330.5 -182.5q212 0 331 182.5t119 484.5q0 301 -119 484t-331 183q-211 0 -330.5 -183t-119.5 -484zM434 1924h326l310 -202 h-240z" />
<glyph unicode="&#xd3;" horiz-adv-x="1505" d="M93 776q0 395 184 608.5t475 213.5t475.5 -213.5t184.5 -608.5t-184.5 -609t-475.5 -214t-475 214t-184 609zM302 776q0 -302 119.5 -484.5t330.5 -182.5q212 0 331 182.5t119 484.5q0 301 -119 484t-331 183q-211 0 -330.5 -183t-119.5 -484zM435 1722l311 202h326 l-396 -202h-241z" />
<glyph unicode="&#xd4;" horiz-adv-x="1505" d="M93 776q0 395 184 608.5t475 213.5t475.5 -213.5t184.5 -608.5t-184.5 -609t-475.5 -214t-475 214t-184 609zM302 776q0 -302 119.5 -484.5t330.5 -182.5q212 0 331 182.5t119 484.5q0 301 -119 484t-331 183q-211 0 -330.5 -183t-119.5 -484zM396 1722l294 202h124 l295 -202h-217l-140 62l-139 -62h-217z" />
<glyph unicode="&#xd5;" horiz-adv-x="1505" d="M93 776q0 395 184 608.5t475 213.5t475.5 -213.5t184.5 -608.5t-184.5 -609t-475.5 -214t-475 214t-184 609zM302 776q0 -302 119.5 -484.5t330.5 -182.5q212 0 331 182.5t119 484.5q0 301 -119 484t-331 183q-211 0 -330.5 -183t-119.5 -484zM386 1722q9 68 44.5 115 t74.5 67t90 20q62 0 128 -22l99 -33q61 -21 89 -21q30 0 50 13.5t36 62.5h123q-20 -108 -83.5 -155t-133.5 -47q-43 0 -133 34l-67 25l-25 9q-50 18 -80 18q-19 0 -49.5 -14.5t-39.5 -71.5h-123z" />
<glyph unicode="&#xd6;" horiz-adv-x="1505" d="M93 776q0 395 184 608.5t475 213.5t475.5 -213.5t184.5 -608.5t-184.5 -609t-475.5 -214t-475 214t-184 609zM302 776q0 -302 119.5 -484.5t330.5 -182.5q212 0 331 182.5t119 484.5q0 301 -119 484t-331 183q-211 0 -330.5 -183t-119.5 -484zM442 1722v186h186v-186 h-186zM876 1722v186h187v-186h-187z" />
<glyph unicode="&#xd7;" d="M124 115l445 444l-445 452l110 106l449 -447l438 447l120 -99l-453 -459l453 -451l-115 -108l-443 450l-456 -450z" />
<glyph unicode="&#xd8;" horiz-adv-x="1505" d="M93 -47l159 244q-102 143 -130.5 292.5t-28.5 305.5q0 369 183 586t482 217q208 0 374 -127l89 127h191l-165 -241q98 -134 131.5 -275.5t33.5 -310.5q0 -278 -84 -451.5t-230.5 -270t-343.5 -96.5q-226 0 -390 128l-88 -128h-183zM294 787q0 -88 13 -185.5t68 -228.5 l657 952q-90 82 -165 100t-125 18q-207 0 -327.5 -180.5t-120.5 -475.5zM468 231q117 -122 283 -122q215 0 333 183.5t118 488.5q0 231 -77 401z" />
<glyph unicode="&#xd9;" d="M124 527v1025h202v-998q0 -218 42.5 -292.5t132.5 -113.5t201 -39q107 0 189.5 39t123 123.5t40.5 353.5v927h186v-979q0 -272 -62.5 -382t-180.5 -174t-297 -64q-166 0 -304 51t-205.5 158.5t-67.5 364.5zM365 1924h326l310 -202h-240z" />
<glyph unicode="&#xda;" d="M124 527v1025h202v-998q0 -218 42.5 -292.5t132.5 -113.5t201 -39q107 0 189.5 39t123 123.5t40.5 353.5v927h186v-979q0 -272 -62.5 -382t-180.5 -174t-297 -64q-166 0 -304 51t-205.5 158.5t-67.5 364.5zM312 1722l311 202h326l-396 -202h-241z" />
<glyph unicode="&#xdb;" d="M124 527v1025h202v-998q0 -218 42.5 -292.5t132.5 -113.5t201 -39q107 0 189.5 39t123 123.5t40.5 353.5v927h186v-979q0 -272 -62.5 -382t-180.5 -174t-297 -64q-166 0 -304 51t-205.5 158.5t-67.5 364.5zM326 1722l294 202h124l295 -202h-217l-140 62l-139 -62h-217z " />
<glyph unicode="&#xdc;" d="M124 527v1025h202v-998q0 -218 42.5 -292.5t132.5 -113.5t201 -39q107 0 189.5 39t123 123.5t40.5 353.5v927h186v-979q0 -272 -62.5 -382t-180.5 -174t-297 -64q-166 0 -304 51t-205.5 158.5t-67.5 364.5zM373 1722v186h186v-186h-186zM807 1722v186h187v-186h-187z" />
<glyph unicode="&#xdd;" horiz-adv-x="1249" d="M23 1552h235l388 -627l383 627h196l-498 -821v-731h-201v731zM404 1722l311 202h326l-396 -202h-241z" />
<glyph unicode="&#xde;" horiz-adv-x="1195" d="M147 0v1552h202v-280h230q247 0 348.5 -50.5t153 -147.5t51.5 -227q0 -217 -148.5 -365t-442.5 -148h-192v-334h-202zM349 489h136q268 0 353 103t85 246q0 125 -68.5 202t-271.5 77h-234v-628z" />
<glyph unicode="&#xdf;" horiz-adv-x="1210" d="M147 0v1149q0 177 50 271t138.5 144t217.5 50q155 0 266.5 -67t111.5 -200q0 -75 -38 -138.5t-98 -126.5l-45 -47q-83 -87 -83 -130q0 -61 126 -155l42 -31l56 -43l77 -60q180 -148 180 -318q0 -139 -95 -234t-275 -95q-146 0 -259 42v173q89 -39 167 -49.5t106 -10.5 q61 0 111.5 38.5t50.5 111.5q0 59 -36.5 114.5t-170.5 159.5l-56 44q-22 17 -43 33q-119 90 -147 139.5t-28 101.5q0 84 88 183q23 26 29 33l54 63q93 110 93 181q0 51 -55 92t-134 41q-90 0 -152.5 -56.5t-62.5 -235.5v-1167h-186z" />
<glyph unicode="&#xe0;" horiz-adv-x="1132" d="M109 275q0 162 134.5 250t463.5 152l100 19v126q0 103 -69 144.5t-166 41.5q-116 0 -181 -51t-65 -119v-16h-202v15q0 74 62.5 153t166 119t226.5 40q122 0 222 -38t146 -102.5t46 -242.5v-434q0 -71 4 -149q3 -79 35 -183h-196q-29 90 -29 155q-122 -121 -208.5 -153.5 t-165.5 -32.5q-133 0 -228.5 81.5t-95.5 224.5zM310 271q0 -44 23.5 -82t69.5 -59t91 -21q78 0 153.5 45.5t117.5 121.5t42 177v111l-56 -14q-283 -69 -362 -131t-79 -148zM314 1614h216l296 -326h-170z" />
<glyph unicode="&#xe1;" horiz-adv-x="1132" d="M109 275q0 162 134.5 250t463.5 152l100 19v126q0 103 -69 144.5t-166 41.5q-116 0 -181 -51t-65 -119v-16h-202v15q0 74 62.5 153t166 119t226.5 40q122 0 222 -38t146 -102.5t46 -242.5v-434q0 -71 4 -149q3 -79 35 -183h-196q-29 90 -29 155q-122 -121 -208.5 -153.5 t-165.5 -32.5q-133 0 -228.5 81.5t-95.5 224.5zM310 271q0 -44 23.5 -82t69.5 -59t91 -21q78 0 153.5 45.5t117.5 121.5t42 177v111l-56 -14q-283 -69 -362 -131t-79 -148zM345 1288l296 326h216l-342 -326h-170z" />
<glyph unicode="&#xe2;" horiz-adv-x="1133" d="M109 275q0 162 134.5 250t463.5 152l100 19v126q0 103 -69 144.5t-166 41.5q-116 0 -181 -51t-65 -119v-16h-202v15q0 74 62.5 153t166 119t226.5 40q122 0 222 -38t146 -102.5t46 -242.5v-434q0 -71 4 -149q3 -79 35 -183h-196q-29 90 -29 155q-122 -121 -208.5 -153.5 t-165.5 -32.5q-133 0 -228.5 81.5t-95.5 224.5zM292 1288l233 326h124l233 -326h-156l-139 168l-140 -168h-155zM310 271q0 -44 23.5 -82t69.5 -59t91 -21q78 0 153.5 45.5t117.5 121.5t42 177v111l-56 -14q-283 -69 -362 -131t-79 -148z" />
<glyph unicode="&#xe3;" horiz-adv-x="1132" d="M109 275q0 162 134.5 250t463.5 152l100 19v126q0 103 -69 144.5t-166 41.5q-116 0 -181 -51t-65 -119v-16h-202v15q0 74 62.5 153t166 119t226.5 40q122 0 222 -38t146 -102.5t46 -242.5v-434q0 -71 4 -149q3 -79 35 -183h-196q-29 90 -29 155q-122 -121 -208.5 -153.5 t-165.5 -32.5q-133 0 -228.5 81.5t-95.5 224.5zM244 1288q0 132 51.5 194t129.5 62q62 0 126 -40l42 -25q83 -52 116 -52q60 0 60 117h127q-6 -102 -27 -149t-64.5 -77.5t-95.5 -30.5q-68 0 -141 49l-44 29q-59 39 -84 39q-71 0 -71 -116h-125zM310 271q0 -44 23.5 -82 t69.5 -59t91 -21q78 0 153.5 45.5t117.5 121.5t42 177v111l-56 -14q-283 -69 -362 -131t-79 -148z" />
<glyph unicode="&#xe4;" horiz-adv-x="1132" d="M109 275q0 162 134.5 250t463.5 152l100 19v126q0 103 -69 144.5t-166 41.5q-116 0 -181 -51t-65 -119v-16h-202v15q0 74 62.5 153t166 119t226.5 40q122 0 222 -38t146 -102.5t46 -242.5v-434q0 -71 4 -149q3 -79 35 -183h-196q-29 90 -29 155q-122 -121 -208.5 -153.5 t-165.5 -32.5q-133 0 -228.5 81.5t-95.5 224.5zM260 1288v186h186v-186h-186zM310 271q0 -44 23.5 -82t69.5 -59t91 -21q78 0 153.5 45.5t117.5 121.5t42 177v111l-56 -14q-283 -69 -362 -131t-79 -148zM694 1288v186h187v-186h-187z" />
<glyph unicode="&#xe5;" horiz-adv-x="1132" d="M109 275q0 162 134.5 250t463.5 152l100 19v126q0 103 -69 144.5t-166 41.5q-116 0 -181 -51t-65 -119v-16h-202v15q0 74 62.5 153t166 119t226.5 40q122 0 222 -38t146 -102.5t46 -242.5v-434q0 -71 4 -149q3 -79 35 -183h-196q-29 90 -29 155q-122 -121 -208.5 -153.5 t-165.5 -32.5q-133 0 -228.5 81.5t-95.5 224.5zM310 271q0 -44 23.5 -82t69.5 -59t91 -21q78 0 153.5 45.5t117.5 121.5t42 177v111l-56 -14q-283 -69 -362 -131t-79 -148zM384 1474q0 75 54.5 130.5t131.5 55.5q78 0 132 -55.5t54 -130.5q0 -74 -54 -130t-132 -56t-132 56 t-54 130zM477 1474q0 -38 27.5 -65.5t65.5 -27.5q39 0 66 27.5t27 65.5t-27 65.5t-66 27.5q-38 0 -65.5 -27.5t-27.5 -65.5z" />
<glyph unicode="&#xe6;" horiz-adv-x="1901" d="M109 275q0 92 45.5 161t158 123.5t398.5 115.5l119 25v46q0 158 -71.5 210.5t-180.5 52.5q-122 0 -187 -51.5t-65 -119.5v-16h-201v14q0 75 61.5 151t166 118.5t219.5 42.5q109 0 214.5 -39.5t175.5 -165.5q46 83 98.5 122t125.5 61t153 22q197 0 325 -130.5t128 -420.5 v-62h-792l-1 -35q0 -140 97.5 -258t266.5 -118q128 0 181.5 55t53.5 98v10h194v-10q0 -73 -61.5 -150.5t-163 -117.5t-214.5 -40q-123 0 -244 51.5t-196 213.5q-101 -145 -215 -205t-248 -60q-157 0 -249 85.5t-92 220.5zM318 270q0 -81 61.5 -121t130.5 -40 q76 0 156.5 51.5t122 147t41.5 208.5v50l-70 -18q-231 -60 -303.5 -96t-105.5 -83t-33 -99zM1012 675h602v24q0 67 -39 145t-107.5 113.5t-147.5 35.5q-110 0 -198 -88.5t-110 -229.5z" />
<glyph unicode="&#xe7;" horiz-adv-x="1117" d="M93 543q0 299 136 452t378 153q129 0 220.5 -40.5t148 -116.5t56.5 -151v-10h-187v10q0 61 -57.5 107t-170.5 46q-140 0 -235 -103t-95 -331q0 -229 95 -332t235 -103q113 0 170.5 46t57.5 107v10h186v-10q0 -72 -50.5 -143t-132 -113t-203.5 -50l-58 -102 q107 -21 140 -65.5t33 -92.5q0 -55 -44 -100.5t-138 -45.5q-83 0 -159 28v89q58 -31 119 -31q35 0 63 21t28 44q0 68 -186 87l93 168q-218 33 -330.5 170.5t-112.5 401.5z" />
<glyph unicode="&#xe8;" horiz-adv-x="1180" d="M107 551q0 258 146.5 427.5t377.5 169.5q127 0 230 -55t163 -171.5t60 -324.5v-62h-793q0 -179 96.5 -295t267.5 -116q123 0 179.5 47.5t56.5 105.5v10h186v-10q0 -74 -59 -151t-156 -117t-223 -40q-255 0 -393.5 165t-138.5 417zM303 675h603v22q0 78 -37.5 151.5 t-103.5 109t-154 35.5q-104 0 -192 -83.5t-116 -234.5zM343 1614h216l296 -326h-170z" />
<glyph unicode="&#xe9;" horiz-adv-x="1179" d="M107 551q0 258 146.5 427.5t377.5 169.5q127 0 230 -55t163 -171.5t60 -324.5v-62h-793q0 -179 96.5 -295t267.5 -116q123 0 179.5 47.5t56.5 105.5v10h186v-10q0 -74 -59 -151t-156 -117t-223 -40q-255 0 -393.5 165t-138.5 417zM303 675h603v22q0 78 -37.5 151.5 t-103.5 109t-154 35.5q-104 0 -192 -83.5t-116 -234.5zM373 1288l296 326h216l-342 -326h-170z" />
<glyph unicode="&#xea;" horiz-adv-x="1179" d="M107 551q0 258 146.5 427.5t377.5 169.5q127 0 230 -55t163 -171.5t60 -324.5v-62h-793q0 -179 96.5 -295t267.5 -116q123 0 179.5 47.5t56.5 105.5v10h186v-10q0 -74 -59 -151t-156 -117t-223 -40q-255 0 -393.5 165t-138.5 417zM303 675h603v22q0 78 -37.5 151.5 t-103.5 109t-154 35.5q-104 0 -192 -83.5t-116 -234.5zM304 1288l233 326h124l233 -326h-156l-139 168l-140 -168h-155z" />
<glyph unicode="&#xeb;" horiz-adv-x="1179" d="M107 551q0 258 146.5 427.5t377.5 169.5q127 0 230 -55t163 -171.5t60 -324.5v-62h-793q0 -179 96.5 -295t267.5 -116q123 0 179.5 47.5t56.5 105.5v10h186v-10q0 -74 -59 -151t-156 -117t-223 -40q-255 0 -393.5 165t-138.5 417zM289 1288v186h186v-186h-186zM303 675 h603v22q0 78 -37.5 151.5t-103.5 109t-154 35.5q-104 0 -192 -83.5t-116 -234.5zM723 1288v186h187v-186h-187z" />
<glyph unicode="&#xec;" horiz-adv-x="481" d="M-16 1614h216l296 -326h-170zM147 0v1117h186v-1117h-186z" />
<glyph unicode="&#xed;" horiz-adv-x="481" d="M-16 1288l296 326h216l-342 -326h-170zM147 0v1117h186v-1117h-186z" />
<glyph unicode="&#xee;" horiz-adv-x="480" d="M-55 1288l233 326h124l233 -326h-156l-139 168l-140 -168h-155zM147 0v1117h186v-1117h-186z" />
<glyph unicode="&#xef;" horiz-adv-x="480" d="M-70 1288v186h186v-186h-186zM147 0v1117h186v-1117h-186zM364 1288v186h187v-186h-187z" />
<glyph unicode="&#xf0;" horiz-adv-x="1218" d="M78 536q0 167 66 290t188 191.5t256 68.5q56 0 119 -13.5t170 -81.5q-38 97 -96.5 180t-179.5 173l-225 -204l-103 117l181 161q-128 40 -266 40h-25v156h34q119 0 211 -11t193 -54l215 195l103 -116l-178 -160q150 -121 229.5 -247.5t121 -288t41.5 -319.5 q0 -294 -138 -469t-392 -175q-237 0 -381 158.5t-144 408.5zM272 528q0 -177 93 -290.5t241 -113.5q147 0 240 113.5t93 290.5q0 176 -93 289.5t-240 113.5q-148 0 -241 -113.5t-93 -289.5z" />
<glyph unicode="&#xf1;" horiz-adv-x="1196" d="M147 0v1117h186v-193q59 91 114.5 135t116 66.5t134.5 22.5q105 0 188.5 -43t129.5 -126.5t46 -267.5v-711h-186v631q0 150 -20 212.5t-78 98t-126 35.5q-82 0 -156 -48t-118.5 -134t-44.5 -246v-549h-186zM279 1288q0 132 51.5 194t129.5 62q62 0 126 -40l42 -25 q83 -52 116 -52q60 0 60 117h127q-6 -102 -27 -149t-64.5 -77.5t-95.5 -30.5q-68 0 -141 49l-44 29q-59 39 -84 39q-71 0 -71 -116h-125z" />
<glyph unicode="&#xf2;" horiz-adv-x="1240" d="M93 559q0 292 154.5 440.5t373.5 148.5q218 0 372.5 -148.5t154.5 -440.5q0 -293 -154.5 -441.5t-372.5 -148.5q-219 0 -373.5 148.5t-154.5 441.5zM287 559q0 -196 91.5 -315.5t242.5 -119.5q150 0 241.5 119.5t91.5 315.5q0 195 -91.5 314.5t-241.5 119.5 q-151 0 -242.5 -119.5t-91.5 -314.5zM363 1614h216l296 -326h-170z" />
<glyph unicode="&#xf3;" horiz-adv-x="1241" d="M93 559q0 292 154.5 440.5t373.5 148.5q218 0 372.5 -148.5t154.5 -440.5q0 -293 -154.5 -441.5t-372.5 -148.5q-219 0 -373.5 148.5t-154.5 441.5zM287 559q0 -196 91.5 -315.5t242.5 -119.5q150 0 241.5 119.5t91.5 315.5q0 195 -91.5 314.5t-241.5 119.5 q-151 0 -242.5 -119.5t-91.5 -314.5zM396 1288l296 326h216l-342 -326h-170z" />
<glyph unicode="&#xf4;" horiz-adv-x="1241" d="M93 559q0 292 154.5 440.5t373.5 148.5q218 0 372.5 -148.5t154.5 -440.5q0 -293 -154.5 -441.5t-372.5 -148.5q-219 0 -373.5 148.5t-154.5 441.5zM287 559q0 -196 91.5 -315.5t242.5 -119.5q150 0 241.5 119.5t91.5 315.5q0 195 -91.5 314.5t-241.5 119.5 q-151 0 -242.5 -119.5t-91.5 -314.5zM326 1288l233 326h124l233 -326h-156l-139 168l-140 -168h-155z" />
<glyph unicode="&#xf5;" horiz-adv-x="1241" d="M93 559q0 292 154.5 440.5t373.5 148.5q218 0 372.5 -148.5t154.5 -440.5q0 -293 -154.5 -441.5t-372.5 -148.5q-219 0 -373.5 148.5t-154.5 441.5zM287 559q0 -196 91.5 -315.5t242.5 -119.5q150 0 241.5 119.5t91.5 315.5q0 195 -91.5 314.5t-241.5 119.5 q-151 0 -242.5 -119.5t-91.5 -314.5zM295 1288q0 132 51.5 194t129.5 62q62 0 126 -40l42 -25q83 -52 116 -52q60 0 60 117h127q-6 -102 -27 -149t-64.5 -77.5t-95.5 -30.5q-68 0 -141 49l-44 29q-59 39 -84 39q-71 0 -71 -116h-125z" />
<glyph unicode="&#xf6;" horiz-adv-x="1241" d="M93 559q0 292 154.5 440.5t373.5 148.5q218 0 372.5 -148.5t154.5 -440.5q0 -293 -154.5 -441.5t-372.5 -148.5q-219 0 -373.5 148.5t-154.5 441.5zM287 559q0 -196 91.5 -315.5t242.5 -119.5q150 0 241.5 119.5t91.5 315.5q0 195 -91.5 314.5t-241.5 119.5 q-151 0 -242.5 -119.5t-91.5 -314.5zM311 1288v186h186v-186h-186zM745 1288v186h187v-186h-187z" />
<glyph unicode="&#xf7;" d="M124 481v155h1117v-155h-1117zM593 140v178h187v-178h-187zM593 791v186h187v-186h-187z" />
<glyph unicode="&#xf8;" horiz-adv-x="1241" d="M93 -31l132 173q-85 107 -108.5 208t-23.5 214q0 288 155.5 436t373.5 148q157 0 292 -84l62 84h172l-129 -177q77 -97 103 -199t26 -216q0 -297 -158.5 -442t-364.5 -145q-164 0 -293 79l-61 -79h-178zM287 561q0 -148 55 -261l469 628q-85 65 -190 65q-152 0 -243 -121 t-91 -311zM433 187q83 -63 188 -63q151 0 242 120.5t91 311.5q0 145 -53 257z" />
<glyph unicode="&#xf9;" horiz-adv-x="1196" d="M132 409v708h186v-630q0 -245 65 -296t161 -51q83 0 156.5 48.5t117 136t43.5 243.5v549h186v-1117h-186v195q-58 -90 -114 -135t-115 -68t-129 -23q-155 0 -263 87.5t-108 352.5zM302 1614h216l296 -326h-170z" />
<glyph unicode="&#xfa;" horiz-adv-x="1195" d="M132 409v708h186v-630q0 -245 65 -296t161 -51q83 0 156.5 48.5t117 136t43.5 243.5v549h186v-1117h-186v195q-58 -90 -114 -135t-115 -68t-129 -23q-155 0 -263 87.5t-108 352.5zM363 1288l296 326h216l-342 -326h-170z" />
<glyph unicode="&#xfb;" horiz-adv-x="1195" d="M132 409v708h186v-630q0 -245 65 -296t161 -51q83 0 156.5 48.5t117 136t43.5 243.5v549h186v-1117h-186v195q-58 -90 -114 -135t-115 -68t-129 -23q-155 0 -263 87.5t-108 352.5zM294 1288l233 326h124l233 -326h-156l-139 168l-140 -168h-155z" />
<glyph unicode="&#xfc;" horiz-adv-x="1195" d="M132 409v708h186v-630q0 -245 65 -296t161 -51q83 0 156.5 48.5t117 136t43.5 243.5v549h186v-1117h-186v195q-58 -90 -114 -135t-115 -68t-129 -23q-155 0 -263 87.5t-108 352.5zM279 1288v186h186v-186h-186zM713 1288v186h187v-186h-187z" />
<glyph unicode="&#xfd;" horiz-adv-x="1171" d="M31 1117h206l374 -830l350 830h187l-471 -1118q-95 -226 -159 -299.5t-135.5 -103.5t-190.5 -30h-140v155h105q77 0 135 20.5t96.5 65.5t103.5 198l19 43zM441 1288l296 326h216l-342 -326h-170z" />
<glyph unicode="&#xfe;" horiz-adv-x="1233" d="M132 -434v1986h186v-629q58 99 110.5 140t118.5 63t136 22q128 0 234 -69.5t164.5 -207.5t58.5 -310q0 -255 -122.5 -423.5t-343.5 -168.5q-71 0 -134.5 20.5t-112.5 61t-109 144.5v-629h-186zM318 558q0 -190 82 -312t231 -122q136 0 226 108t90 323q0 251 -95 348.5 t-217 97.5q-88 0 -164.5 -53.5t-114.5 -159t-38 -230.5z" />
<glyph unicode="&#xff;" horiz-adv-x="1171" d="M31 1117h206l374 -830l350 830h187l-471 -1118q-95 -226 -159 -299.5t-135.5 -103.5t-190.5 -30h-140v155h105q77 0 135 20.5t96.5 65.5t103.5 198l19 43zM295 1288v186h186v-186h-186zM729 1288v186h187v-186h-187z" />
<glyph unicode="&#x152;" horiz-adv-x="2234" d="M93 776q0 389 181 605.5t492 216.5q130 0 234 -46t205 -171v171h876v-171h-675v-489h590v-155h-590v-566h727v-171h-928v171q-103 -132 -209 -175t-231 -43q-309 0 -490.5 216.5t-181.5 606.5zM302 776q0 -302 119.5 -484.5t331.5 -182.5q211 0 332.5 182.5t121.5 484.5 q0 301 -121.5 484t-332.5 183q-212 0 -331.5 -183t-119.5 -484z" />
<glyph unicode="&#x153;" horiz-adv-x="2040" d="M93 559q0 299 158 444t367 145q122 0 237 -49.5t198 -168.5q92 119 196 168.5t227 49.5q129 0 231.5 -54t163.5 -171.5t61 -325.5v-62h-791q0 -179 96.5 -295t267.5 -116q123 0 179 54t56 99v10h187v-10q0 -75 -59.5 -151.5t-157.5 -116.5t-214 -40q-297 0 -444 225 q-65 -112 -184 -168.5t-249 -56.5q-211 0 -368.5 145.5t-157.5 444.5zM287 559q0 -196 91.5 -315.5t242.5 -119.5q150 0 241.5 119.5t91.5 315.5q0 195 -91.5 314.5t-241.5 119.5q-151 0 -242.5 -119.5t-91.5 -314.5zM1155 675h603v22q0 66 -38 145.5t-110 117.5 q-65 34 -130 34q-8 0 -17 -1q-104 0 -192 -83.5t-116 -234.5z" />
<glyph unicode="&#x178;" horiz-adv-x="1249" d="M23 1552h235l388 -627l383 627h196l-498 -821v-731h-201v731zM303 1722v186h186v-186h-186zM737 1722v186h187v-186h-187z" />
<glyph unicode="&#x2c6;" horiz-adv-x="1210" d="M310 1288l233 326h124l233 -326h-156l-139 168l-140 -168h-155z" />
<glyph unicode="&#x2dc;" horiz-adv-x="1210" d="M279 1288q0 132 51.5 194t129.5 62q62 0 126 -40l42 -25q83 -52 116 -52q60 0 60 117h127q-6 -102 -27 -149t-64.5 -77.5t-95.5 -30.5q-68 0 -141 49l-44 29q-59 39 -84 39q-71 0 -71 -116h-125z" />
<glyph unicode="&#x2000;" horiz-adv-x="962" />
<glyph unicode="&#x2001;" horiz-adv-x="1924" />
<glyph unicode="&#x2002;" horiz-adv-x="962" />
<glyph unicode="&#x2003;" horiz-adv-x="1924" />
<glyph unicode="&#x2004;" horiz-adv-x="641" />
<glyph unicode="&#x2005;" horiz-adv-x="481" />
<glyph unicode="&#x2006;" horiz-adv-x="320" />
<glyph unicode="&#x2007;" horiz-adv-x="320" />
<glyph unicode="&#x2008;" horiz-adv-x="240" />
<glyph unicode="&#x2009;" horiz-adv-x="384" />
<glyph unicode="&#x200a;" horiz-adv-x="106" />
<glyph unicode="&#x2010;" horiz-adv-x="776" d="M78 551v155h621v-155h-621z" />
<glyph unicode="&#x2011;" horiz-adv-x="776" d="M78 551v155h621v-155h-621z" />
<glyph unicode="&#x2012;" horiz-adv-x="776" d="M78 551v155h621v-155h-621z" />
<glyph unicode="&#x2013;" horiz-adv-x="1055" d="M62 528v155h931v-155h-931z" />
<glyph unicode="&#x2014;" horiz-adv-x="2110" d="M62 528v155h1986v-155h-1986z" />
<glyph unicode="&#x2018;" horiz-adv-x="621" d="M178 1008v164q0 148 28 225.5t86.5 142.5t149.5 105v-121q-48 -27 -73.5 -67.5t-38.5 -85t-13 -99.5h125v-264h-264z" />
<glyph unicode="&#x2019;" horiz-adv-x="621" d="M178 1008v121q48 28 73.5 68t38.5 84.5t13 99.5h-125v264h264v-164q0 -148 -28.5 -225.5t-86.5 -142.5t-149 -105z" />
<glyph unicode="&#x201a;" horiz-adv-x="621" d="M178 0v264h264v-164q0 -148 -28.5 -225.5t-86.5 -142.5t-149 -104v120q48 28 73.5 68.5t38.5 84.5t13 99h-125z" />
<glyph unicode="&#x201c;" horiz-adv-x="1008" d="M178 977v164q0 148 28 225.5t86.5 142.5t149.5 105v-121q-48 -27 -73.5 -67.5t-38.5 -85t-13 -99.5h125v-264h-264zM566 977v164q0 148 28 225.5t86 142.5t150 105v-121q-48 -27 -73.5 -67.5t-38.5 -85t-13 -99.5h125v-264h-264z" />
<glyph unicode="&#x201d;" horiz-adv-x="1008" d="M178 977v121q48 28 73.5 68t38.5 84.5t13 99.5h-125v264h264v-164q0 -148 -28.5 -225.5t-86.5 -142.5t-149 -105zM566 977v121q47 28 73 68t39 84.5t13 99.5h-125v264h264v-164q0 -148 -28.5 -225.5t-86.5 -142.5t-149 -105z" />
<glyph unicode="&#x201e;" horiz-adv-x="1008" d="M178 0v264h264v-164q0 -148 -28.5 -225.5t-86.5 -142.5t-149 -104v120q48 28 73.5 68.5t38.5 84.5t13 99h-125zM566 0v264h264v-164q0 -148 -28.5 -225.5t-86.5 -142.5t-149 -104v120q47 28 73 68.5t39 84.5t13 99h-125z" />
<glyph unicode="&#x2022;" d="M256 768q0 112 55 210.5t155.5 157.5t216.5 59q112 0 212 -57.5t157 -157t57 -212.5q0 -114 -57 -213.5t-156 -156.5t-213 -57q-117 0 -217 59t-155 157t-55 211z" />
<glyph unicode="&#x2026;" horiz-adv-x="2110" d="M221 0v264h264v-264h-264zM923 0v264h264v-264h-264zM1625 0v264h264v-264h-264z" />
<glyph unicode="&#x202f;" horiz-adv-x="384" />
<glyph unicode="&#x2039;" horiz-adv-x="659" d="M85 481v155l335 357h161l-305 -438l305 -431h-170z" />
<glyph unicode="&#x203a;" horiz-adv-x="659" d="M78 124l306 438l-306 431h170l326 -357v-155l-334 -357h-162z" />
<glyph unicode="&#x205f;" horiz-adv-x="481" />
<glyph unicode="&#x2122;" horiz-adv-x="1552" d="M85 1446v106h631v-106h-250v-670h-128v670h-253zM802 776v776h122l217 -508l202 508h123v-776h-121v496l-152 -385h-118l-160 379v-490h-113z" />
<glyph unicode="&#xe000;" horiz-adv-x="1115" d="M0 0v1115h1115v-1115h-1115z" />
</font>
</defs>
</svg>
